<svg xmlns="http://www.w3.org/2000/svg" id="draw.id" overflow="visible" v:ver="3" v:layers="{&quot;default&quot;:{&quot;name&quot;:&quot;Default&quot;,&quot;print&quot;:0,&quot;display&quot;:1,&quot;publish&quot;:0},&quot;jx575u50pt&quot;:{&quot;name&quot;:&quot;Untitled layer&quot;,&quot;print&quot;:1,&quot;display&quot;:1,&quot;publish&quot;:1}}" x="500.5" y="500.5" v:stencils="{&quot;0&quot;:{&quot;id&quot;:&quot;stencil_1&quot;,&quot;expand&quot;:1,&quot;show_name&quot;:1},&quot;1&quot;:{&quot;id&quot;:&quot;stencil_0&quot;,&quot;expand&quot;:0,&quot;show_name&quot;:1}}" xmlns:v="http://vecta.io"><style xmlns="http://www.w3.org/1999/xhtml"><![CDATA[#draw\.id{stroke:#000;stroke-linecap:round;stroke-linejoin:round;fill:#fff;fill-rule:evenodd;font-family:Roboto;font-size:14px;text-anchor:middle}#draw\.id text{paint-order:stroke;white-space:pre}#draw\.id .Text\.cls{stroke:none}]]></style><defs><style type="text/css">@import url('https://fonts.googleapis.com/css?family=Roboto+Condensed:400,400i,700,700i');@import url('https://fonts.googleapis.com/css?family=Roboto:400,400i,700,700i');@import url('https://fonts.googleapis.com/css?family=Cousine:400,400i,700,700i');@import url('https://fonts.googleapis.com/css?family=Anonymous+Pro:400,400i,700,700i');@import url('https://fonts.googleapis.com/css?family=Lato:400,400i,700,700i');@import url('https://fonts.googleapis.com/css?family=Open+Sans:400,400i,700,700i');</style><linearGradient id="L00100100000aaff10000387f.grad" x1="0%" y1="0%" x2="100%" y2="100%"><stop offset="0%" stop-color="#00aaff" stop-opacity="1"/><stop offset="100%" stop-color="#00387f" stop-opacity="1"/></linearGradient><linearGradient id="L001001000808080100000000.grad" x1="0%" y1="0%" x2="100%" y2="100%"><stop offset="0%" stop-color="#808080" stop-opacity="1"/><stop offset="100%" stop-color="#000000" stop-opacity="1"/></linearGradient><linearGradient id="L001001000808080100100000000100.grad" x1="0%" y1="0%" x2="100%" y2="100%"><stop offset="0%" stop-color="#808080" stop-opacity="1"/><stop offset="100%" stop-color="#000000" stop-opacity="1"/></linearGradient><linearGradient id="L001001000f1a9eb100672965.grad" x1="0%" y1="0%" x2="100%" y2="100%"><stop offset="0%" stop-color="#f1a9eb" stop-opacity="1"/><stop offset="100%" stop-color="#672965" stop-opacity="1"/></linearGradient><linearGradient id="L001001000ffd194100d1913c.grad" x1="0%" y1="0%" x2="100%" y2="100%"><stop offset="0%" stop-color="#ffd194"/><stop offset="100%" stop-color="#d1913c"/></linearGradient><linearGradient id="L06710033090a4ae100ECEFF1.grad" x1="0%" y1="67%" x2="100%" y2="33%"><stop offset="0%" stop-color="#90a4ae"/><stop offset="100%" stop-color="#ECEFF1"/></linearGradient><linearGradient id="L0941006090a4ae100B0BEC5.grad" x1="0%" y1="94%" x2="100%" y2="6%"><stop offset="0%" stop-color="#90a4ae"/><stop offset="100%" stop-color="#B0BEC5"/></linearGradient><linearGradient id="L100100000578fff1008ab1ff.grad" x1="100%" y1="100%" x2="0%" y2="0%"><stop offset="0%" stop-color="#578fff"/><stop offset="100%" stop-color="#8ab1ff"/></linearGradient><linearGradient id="L10010000057c7ff1008ad8ff.grad" x1="100%" y1="100%" x2="0%" y2="0%"><stop offset="0%" stop-color="#57c7ff"/><stop offset="100%" stop-color="#8ad8ff"/></linearGradient><linearGradient id="L10010000057ffff1008affff.grad" x1="100%" y1="100%" x2="0%" y2="0%"><stop offset="0%" stop-color="#57ffff"/><stop offset="100%" stop-color="#8affff"/></linearGradient><linearGradient id="L1001000008fff57100b1ff8a.grad" x1="100%" y1="100%" x2="0%" y2="0%"><stop offset="0%" stop-color="#8fff57"/><stop offset="100%" stop-color="#b1ff8a"/></linearGradient><linearGradient id="L100100000c757ff100d88aff.grad" x1="100%" y1="100%" x2="0%" y2="0%"><stop offset="0%" stop-color="#c757ff"/><stop offset="100%" stop-color="#d88aff"/></linearGradient><linearGradient id="L100100000c7ff57100d8ff8a.grad" x1="100%" y1="100%" x2="0%" y2="0%"><stop offset="0%" stop-color="#c7ff57"/><stop offset="100%" stop-color="#d8ff8a"/></linearGradient><linearGradient id="L100100000ff578f100ff8ab1.grad" x1="100%" y1="100%" x2="0%" y2="0%"><stop offset="0%" stop-color="#ff578f"/><stop offset="100%" stop-color="#ff8ab1"/></linearGradient><linearGradient id="L100100000ff57e3100ff8aeb.grad" x1="100%" y1="100%" x2="0%" y2="0%"><stop offset="0%" stop-color="#ff57e3"/><stop offset="100%" stop-color="#ff8aeb"/></linearGradient><linearGradient id="L100100000ff7357100ff9d8a.grad" x1="100%" y1="100%" x2="0%" y2="0%"><stop offset="0%" stop-color="#ff7357"/><stop offset="100%" stop-color="#ff9d8a"/></linearGradient><linearGradient id="L100100000ffab57100ffc48a.grad" x1="100%" y1="100%" x2="0%" y2="0%"><stop offset="0%" stop-color="#ffab57"/><stop offset="100%" stop-color="#ffc48a"/></linearGradient><linearGradient id="L100100000ffe357100ffeb8a.grad" x1="100%" y1="100%" x2="0%" y2="0%"><stop offset="0%" stop-color="#ffe357"/><stop offset="100%" stop-color="#ffeb8a"/></linearGradient><linearGradient id="L100100000ffff57100ffff8a.grad" x1="100%" y1="100%" x2="0%" y2="0%"><stop offset="0%" stop-color="#ffff57"/><stop offset="100%" stop-color="#ffff8a"/></linearGradient><linearGradient id="L170831000E0E0E0100757575.grad" x1="17%" y1="0%" x2="83%" y2="100%"><stop offset="0%" stop-color="#E0E0E0"/><stop offset="100%" stop-color="#757575"/></linearGradient><linearGradient id="L5005010004387FD1004683EA.grad" x1="50%" y1="0%" x2="50%" y2="100%"><stop offset="0%" stop-color="#4387FD"/><stop offset="100%" stop-color="#4683EA"/></linearGradient><linearGradient id="L611003900000000100100808080100.grad" x1="61%" y1="100%" x2="39%" y2="0%"><stop offset="0%" stop-color="#000000" stop-opacity="1"/><stop offset="100%" stop-color="#808080" stop-opacity="1"/></linearGradient><clipPath id="jw8nw00y2b8.clip"><path d="M 0 15 C 0 6.69 6.69 0 15 0 L 399 0 C 407.31 0 414 6.69 414 15 L 414 813 C 414 821.31 407.31 828 399 828 L 15 828 C 6.69 828 0 821.31 0 813 Z" stroke="hsla(0,0%,100%,1)" stroke-width="1" transform="translate(0 0)"/></clipPath><clipPath id="jw8nwu5f2en.clip"><path d="M 480 947.0445 C 480 966 463.5 986 440.1188 986 L 40.1346 986 C 10 986 0 960 0 949.9712 L 0 39.7345 C 0 16 20 0 39.7865 0 L 130.3007 0 C 139.25 0 145 7.75 145 14.1357 L 145 14 C 145 30.62 158.38 44 175 44 L 305 44 C 321.62 44 335 30.62 335 14 L 335 13.8857 C 335 8.75 340 0 349.9493 0 L 439.7751 0 C 464.5 0 480 20.5 480 39.9367 Z" stroke="hsla(0,0%,100%,1)" stroke-width="1" transform="translate(0 0)"/></clipPath><clipPath id="jw8nxjem3h1.clip"><path d="M 0 40 C 0 17.84 17.84 0 40 0 L 374 0 C 396.16 0 414 17.84 414 40 L 414 834 C 414 856.16 396.16 874 374 874 L 40 874 C 17.84 874 0 856.16 0 834 Z" stroke="hsla(0,0%,100%,1)" transform="translate(1.1517835812563817 3)"/></clipPath><clipPath id="jw8ny4f43i0.clip"><path d="M 0 40 C 0 17.84 17.84 0 40 0 L 440 0 C 462.16 0 480 17.84 480 40 L 480 973 C 480 995.16 462.16 1013 440 1013 L 40 1013 C 17.84 1013 0 995.16 0 973 Z" stroke="hsla(0,0%,100%,1)" stroke-width="1" transform="translate(6 8.642899999999997)"/></clipPath><clipPath id="jw8o1udg4wt.clip"><path d="M 43.54657451923149 0 L 149.36523437499966 0 C 180.34197716346247 0 180.34197716346247 30.062344341105906 206.68347355769168 30.062344341105906 C 233.02496995192348 30.062344341105906 233.02496995192348 0 264.0775615985576 0 L 375.48191105769286 0 C 390.62403846153893 0 396.11487379807704 1.5754000230444005 401.65063100961584 4.533742296454201 C 407.18638822115395 7.4920414082198015 411.530851862981 11.833239608706302 414.4913762019235 17.364835963593304 C 417.45190054086584 22.896389156836005 419.02848557692346 28.383140563119007 419.02848557692346 43.51388664745901 L 419.02848557692346 839.0223144317017 C 419.02848557692346 854.1529741927511 417.45190054086584 859.6397687606808 414.4913762019235 865.171365115567 C 411.530851862981 870.7028751471631 407.18638822115395 875.0440733476512 401.65063100961584 878.0024587827053 C 396.11487379807704 880.9607578944717 390.62403846153893 882.5361579175152 375.48191105769286 882.5361579175152 L 43.54657451923149 882.5361579175152 C 28.404447115384198 882.5361579175152 22.913611778847397 880.9607578944717 17.377854567307896 878.0024587827053 C 11.842097355768498 875.0440733476512 7.497633713942099 870.7028751471631 4.537109374999999 865.171365115567 C 1.5765850360578997 859.6397687606808 0 854.1529741927511 0 839.0223144317017 L 0 43.51388664745901 C 0 28.383140563119007 1.5765850360578997 22.896389156836005 4.537109374999999 17.364835963593304 C 7.497633713942099 11.833239608706302 11.842097355768498 7.4920414082198015 17.377854567307896 4.533742296454201 C 22.913611778847397 1.5754000230444005 28.404447115384198 0 43.54657451923149 0 Z" fill="hsla(0,0%,20%,1)" stroke="none" transform="translate(0 0)"/></clipPath><clipPath id="jw8pi2jcloi.clip"><path d="M 335.8927317333333 814.0000000000001 C 362.464 814.0000000000001 376 790.972109720438 376 774.0900697557959 L 376 39.9095124786729 C 376 15.5326649749132 354.944 0.0138998239484 336.1203370666667 0.0138998239484 L 298.2586410666667 0.0138998239484 C 296.288 0.0138998239484 292.7786666666667 2.3917210306186 292.7943082666667 5.7074945327155 C 292.7786666666667 7.1475636899658 292.7786666666667 8.3184020911954 292.7786666666667 10.0259999134094 C 292.7786666666667 21.1194284391008 283.83488 30.0503002153345 272.7253333333333 30.0503002153345 L 103.2746666666667 30.0503002153345 C 92.16512 30.0503002153345 83.2213333333333 21.1194284391008 83.2213333333333 10.0259999134094 C 83.2213333333333 7.9584598941353 83.2213333333333 8.5241548630892 83.2320618666667 6.3454783100915 C 83.2213333333333 2.0162597680386 79.8373333333333 0.0138998239484 77.4965077333333 0.0138998239484 L 39.9373162666667 0.0138998239484 C 23.0613333333333 -0.4867151928249 0 12.5290749972763 0 40.0629009198122 L 0 774.0901698787992 C 0 797.9806198322619 19.552 814.0000000000001 40.107168 814.0000000000001 Z" stroke="hsla(0,0%,100%,1)" stroke-width="1" transform="translate(1.6289867642501576 1)"/></clipPath><clipPath id="jw8pmnlrt78.clip"><path d="M 369.8393 895.9999976352831 C 399.096 895.9999976352831 414 870.652297635283 414 852.0696976352831 L 414 43.9298976352831 C 414 17.097397635283 390.816 0.015297635283 370.0899 0.015297635283 L 328.4018 0.015297635283 C 326.232 0.015297635283 322.368 2.632697635283 322.3852 6.282497635283 C 322.368 7.867597635283 322.368 9.156397635283 322.368 11.035997635283 C 322.368 23.246897635283 312.5203 33.0774976352831 300.288 33.0774976352831 L 113.712 33.0774976352831 C 101.4797 33.0774976352831 91.632 23.246897635283 91.632 11.035997635283 C 91.632 8.760197635283 91.632 9.382897635283 91.6438 6.984697635283 C 91.632 2.219397635283 87.906 0.015297635283 85.3286 0.015297635283 L 43.9735 0.015297635283 C 25.392 -0.535702364717 0 13.791197635283 0 44.0986976352831 L 0 852.0697976352831 C 0 878.3668976352831 21.528 895.9999976352831 44.1606 895.9999976352831 Z" stroke="hsla(0,0%,100%,1)" stroke-width="1" transform="translate(0.9199223449481906 1.0000011823585737)"/></clipPath><clipPath id="jw8uzo6nb9b.clip"><rect x="0" y="0" width="480" height="1040" stroke-width="0.2" stroke="none" rx="40" class="" transform="translate(0.999964282226756 1.16666664971126)"/></clipPath><clipPath id="jwpugewnio.clip"><path d="M 0 0 L 375 0 L 375 667 L 0 667 Z" fill="hsla(240,8%,12%,1)" fill-opacity="1" stroke="hsla(0,0%,75%,1)" stroke-linejoin="miter" stroke-width="1" transform="translate(146.49997790527343 1)"/></clipPath><clipPath id="jwpuhbtxk8.clip"><path d="M 0 0 L 414 0 L 414 736 L 0 736 Z" stroke="hsla(0,0%,75%,1)" stroke-linejoin="miter" stroke-width="1" transform="translate(161.99995786132808 1)"/></clipPath><g id="many.end"><path d="M -5 0 L 0 7.5 L 5 0" fill="none"/></g></defs><title xmlns="http://www.w3.org/1999/xhtml">Без названия</title><desc xmlns="http://www.w3.org/1999/xhtml"></desc><svg id="kqjn8klguv" width="898.015773010254" height="634.9606475830078" viewBox="0 0 1122.5197162628174 793.7008094787598" overflow="visible" v:setup="{&quot;paper&quot;:&quot;CUSTOM&quot;,&quot;unit&quot;:&quot;px&quot;,&quot;scale&quot;:{&quot;from&quot;:1,&quot;to&quot;:1},&quot;width&quot;:&quot;297mm&quot;,&quot;height&quot;:&quot;210mm&quot;}"><g id="kr0nr489m3" transform="translate(10 11.792499542236328)" class="NoPrint.cls"><path d="M 55.85198974609375 11.023002624511719 L 52.35400390625 11.023002624511719 L 52.35400390625 19.107994079589844 C 52.35400390625 21.18199920654297 51.501007080078125 22.840003967285156 48.993988037109375 22.840003967285156 C 46.514007568359375 22.86699676513672 45.79400634765625 21.159996032714844 45.79400634765625 18.99999237060547 L 45.79400634765625 11.030006408691406 L 42.29400634765625 11.030006408691406 L 42.29400634765625 19.87999725341797 C 42.29400634765625 22.43999481201172 43.20098876953125 26.08000946044922 47.99798583984375 26.11699676513672 C 50.63800048828125 26.144004821777344 51.9429931640625 24.86400604248047 52.55499267578125 23.717002868652344 L 52.55499267578125 25.66199493408203 L 55.8389892578125 25.66199493408203 Z M 57.2340087890625 25.65300750732422 L 60.72601318359375 25.65300750732422 L 60.72601318359375 17.57799530029297 C 60.72601318359375 15.525993347167969 61.579010009765625 13.874000549316406 64.0579833984375 13.846000671386719 C 66.510009765625 13.846000671386719 67.23001098632812 15.525993347167969 67.23001098632812 17.71100616455078 L 67.23001098632812 25.65300750732422 L 70.72198486328125 25.65300750732422 L 70.72198486328125 16.83100128173828 C 70.72198486328125 14.245994567871094 69.81500244140625 10.594001770019531 65.04498291015625 10.566993713378906 C 62.4329833984375 10.540000915527344 61.125 11.819999694824219 60.488006591796875 12.967002868652344 L 60.5150146484375 11.021995544433594 L 57.2349853515625 11.021995544433594 L 57.2349853515625 25.652000427246094 Z M 72.05401611328125 9.047996520996094 L 75.54598999023438 9.047996520996094 L 75.54598999023438 5.928001403808594 L 72.05401611328125 5.928001403808594 L 72.05401611328125 9.027999877929688 Z M 72.05401611328125 25.652000427246094 L 75.54598999023438 25.652000427246094 L 75.54598999023438 11.021995544433594 L 72.05401611328125 11.021995544433594 Z M 79.19900512695312 25.65399932861328 L 82.69100952148438 25.65399932861328 L 82.69100952148438 13.713996887207031 L 85.19598388671875 13.713996887207031 L 84.15899658203125 11.021995544433594 L 82.70001220703125 11.021995544433594 L 82.70001220703125 5.928001403808594 L 79.20001220703125 5.928001403808594 L 79.20001220703125 11.023994445800781 L 76.77499389648438 11.023994445800781 L 76.77499389648438 13.715995788574219 L 79.20001220703125 13.715995788574219 Z M 88.56600952148438 30.77100372314453 L 92.29598999023438 30.77100372314453 L 100 11.023002624511719 L 96.26800537109375 11.023002624511719 L 92.74798583984375 20.74999237060547 L 89.18399047851562 11.023002624511719 L 85.44598388671875 11.023002624511719 L 90.9630126953125 25.097007751464844 Z M 35.529998779296875 14.463996887207031 L 31.6300048828125 0 L 17.100006103515625 3.8779983520507812 L 14.951995849609375 7.653999328613281 L 10.60198974609375 7.624000549316406 L 0 18.21100616455078 L 10.62200927734375 28.795997619628906 L 14.97900390625 28.76299285888672 L 17.128997802734375 32.53899383544922 L 31.628997802734375 36.415000915527344 L 35.5159912109375 21.95299530029297 L 33.32000732421875 18.20800018310547 Z M 26.42999267578125 5.417999267578125 L 20.05999755859375 16.42200469970703 L 7.32000732421875 16.42200469970703 L 15.339996337890625 8.262001037597656 Z M 20.05999755859375 20.01799774169922 L 26.42999267578125 31.02100372314453 L 15.329986572265625 28.16899871826172 L 7.30999755859375 20.02100372314453 L 20.04998779296875 20.02100372314453 Z M 23.160003662109375 18.230995178222656 L 29.5419921875 7.208000183105469 L 32.62200927734375 18.211997985839844 L 29.5419921875 29.211997985839844 Z" stroke="#ffffff" stroke-linejoin="miter" stroke-linecap="butt" fill="#222c37" fill-rule="nonzero"/></g></svg></svg>